# xmcd
#
# Track frame offsets: 
#        150
#        14624
#        29623
#        42515
#        57916
#        71351
#        91444
#        114073
#        126428
#        148521
#        158807
#        175668
#        194520
#
# Disc length: 3263 seconds
#
# Revision: 5
# Processed by: cddbd v1.5.2PL0 Copyright (c) Steve Scherf et al.
# Submitted via: ExactAudioCopy v1.0b3
#
DISCID=b40cbd0d
DTITLE=Kasey Chambers - Barricades and Brickwalls
DYEAR=2001
DGENRE=Country
TTITLE0=Barricades and Brickwalls
TTITLE1=Not Pretty Enough
TTITLE2=On A Bad Day
TTITLE3=Runaway Train
TTITLE4=A Little Bit Lonesome
TTITLE5=Nullarbor Song
TTITLE6=Million Tears
TTITLE7=Still Feeling Blue
TTITLE8=This Mountain
TTITLE9=Crossfire
TTITLE10=Falling Into You
TTITLE11=If I Were You
TTITLE12=I Still Pray
EXTD=YEAR: 2001
EXTT0=
EXTT1=
EXTT2=
EXTT3=
EXTT4=
EXTT5=
EXTT6=
EXTT7=
EXTT8=
EXTT9=
EXTT10=
EXTT11=
EXTT12=
PLAYORDER=
